<?xml version="1.0" encoding="UTF-8"?>
<svg width="800" height="1400" xmlns="http://www.w3.org/2000/svg">
    <style>
        .title { font: bold 24px sans-serif; fill: #6750A4; }
        .subtitle { font: bold 20px sans-serif; fill: #03DAC6; }
        .text { font: 16px sans-serif; fill: #333; }
        .code { font: 14px monospace; fill: #666; background: #f0f0f0; }
        .section { font: bold 18px sans-serif; fill: #6750A4; }
        .api-box { fill: #f8f9fa; stroke: #6750A4; stroke-width: 1; }
        .api-title { font: bold 16px sans-serif; fill: #6750A4; }
    </style>
    
    <rect width="100%" height="100%" fill="#f8f9fa"/>
    
    <!-- Titel -->
    <text x="40" y="50" class="title">Polyglotte Translator - API Dokumentation</text>
    
    <!-- Mistral AI Integration -->
    <text x="40" y="100" class="section">Mistral AI Integration</text>
    <text x="40" y="130" class="subtitle">Modell-Konfiguration</text>
    <text x="60" y="160" class="text">• Modell: mistral-medium</text>
    <text x="60" y="185" class="text">• Maximale Token: 2000</text>
    <text x="60" y="210" class="text">• Temperature: 0.3 - 0.7 (kontextabhängig)</text>
    
    <!-- Prompt Engineering -->
    <text x="40" y="260" class="section">Prompt Engineering</text>
    
    <text x="40" y="290" class="subtitle">Übersetzungs-Prompts</text>
    <rect x="60" y="310" width="680" height="180" class="api-box" rx="10"/>
    <text x="80" y="340" class="code">
        <tspan x="80" dy="0">Rolle: Experten-Übersetzer für {context} Texte</tspan>
        <tspan x="80" dy="25">Kontext: {context}</tspan>
        <tspan x="80" dy="25">Textart: {textType}</tspan>
        <tspan x="80" dy="25">Stil: {formal/informell}</tspan>
        <tspan x="80" dy="25">Zielsprache: {targetLanguage}</tspan>
        <tspan x="80" dy="25">Text: {inputText}</tspan>
    </text>
    
    <text x="40" y="540" class="subtitle">Chat-Prompts</text>
    <rect x="60" y="560" width="680" height="120" class="api-box" rx="10"/>
    <text x="80" y="590" class="code">
        <tspan x="80" dy="0">System: Hilfreicher KI-Assistent mit Expertise in {domain}</tspan>
        <tspan x="80" dy="25">Sprache: Deutsch</tspan>
        <tspan x="80" dy="25">Kontext: Vorherige Nachrichten + Aktuelle Anfrage</tspan>
    </text>
    
    <!-- API Endpoints -->
    <text x="40" y="730" class="section">API Endpoints</text>
    
    <text x="40" y="760" class="subtitle">Übersetzungs-API</text>
    <rect x="60" y="780" width="680" height="150" class="api-box" rx="10"/>
    <text x="80" y="810" class="api-title">POST /chat/completions</text>
    <text x="80" y="840" class="code">
        <tspan x="80" dy="0">Headers: {</tspan>
        <tspan x="100" dy="20">'Authorization': 'Bearer ${apiKey}',</tspan>
        <tspan x="100" dy="20">'Content-Type': 'application/json'</tspan>
        <tspan x="80" dy="20">}</tspan>
    </text>
    
    <!-- Response Handling -->
    <text x="40" y="980" class="section">Response Handling</text>
    
    <text x="40" y="1010" class="subtitle">Fehlerbehandlung</text>
    <rect x="60" y="1030" width="680" height="160" class="api-box" rx="10"/>
    <text x="80" y="1060" class="text">• Automatische Wiederholungsversuche: 3x</text>
    <text x="80" y="1085" class="text">• Exponentielles Backoff</text>
    <text x="80" y="1110" class="text">• Verbindungsfehler-Handling</text>
    <text x="80" y="1135" class="text">• Rate-Limiting: 500ms zwischen Anfragen</text>
    <text x="80" y="1160" class="text">• Timeout: 30 Sekunden</text>
    
    <!-- Cache-Strategie -->
    <text x="40" y="1220" class="section">Cache-Strategie</text>
    <rect x="60" y="1240" width="680" height="100" class="api-box" rx="10"/>
    <text x="80" y="1270" class="text">• In-Memory Cache für häufige Übersetzungen</text>
    <text x="80" y="1295" class="text">• Cache-Dauer: 60 Minuten</text>
    <text x="80" y="1320" class="text">• Cache-Key: Hash aus Text + Zielsprache</text>
    
    <!-- Dekorative Elemente -->
    <rect x="20" y="20" width="760" height="1360" rx="15" 
          stroke="#6750A4" stroke-width="2" fill="none"/>
    <path d="M40,70 L760,70" stroke="#03DAC6" stroke-width="1"/>
    
    <!-- Kristall-Dekoration -->
    <g transform="translate(700,40) scale(0.4)">
        <path d="M0,0 L30,-30 L60,0 L30,30 Z" 
              fill="none" stroke="#6750A4" stroke-width="2">
            <animate attributeName="stroke-opacity"
                     values="0.2;0.8;0.2" dur="3s"
                     repeatCount="indefinite"/>
        </path>
        <path d="M15,-15 L45,-15 L45,15 L15,15 Z"
              fill="none" stroke="#03DAC6" stroke-width="2">
            <animate attributeName="stroke-opacity"
                     values="0.8;0.2;0.8" dur="3s"
                     repeatCount="indefinite"/>
        </path>
    </g>
</svg>
